<svg width="24" height="23" viewBox="0 0 24 23" fill="none" xmlns="http://www.w3.org/2000/svg">
<path d="M19.9116 9.06133C19.9116 5.50691 22.9191 3.77528 23.0103 3.68414C21.2786 1.22339 18.6356 0.949971 17.7242 0.858832C15.5369 0.585415 13.3496 2.13478 12.1648 2.13478C10.9799 2.13478 9.24831 0.858832 7.33439 0.858832C4.87364 0.858832 2.59517 2.22591 1.41036 4.41325C-1.14153 8.78791 0.772391 15.1676 3.23314 18.6309C4.50908 20.3626 5.87617 22.2765 7.79008 22.1853C9.61286 22.0942 10.342 21.0005 12.5293 21.0005C14.7166 21.0005 15.3546 22.1853 17.2685 22.0942C19.2736 22.0942 20.4584 20.3626 21.6432 18.6309C23.1014 16.6259 23.6483 14.7119 23.6483 14.6208C23.7394 14.7119 19.9116 13.3449 19.9116 9.06133Z" fill="white"/>
</svg>
